<svg width="1024" height="1024" viewBox="0 0 1024 1024" fill="none" xmlns="http://www.w3.org/2000/svg">
<rect width="1024" height="1024" fill="#141414"/>
<path d="M653.976 427.522C665.804 422.006 679.494 426.938 685.046 438.815C686.359 441.611 687.01 445.718 687 451.137C686.856 507.092 686.856 561.507 687 614.379C687.015 624.873 682.632 632.878 673.68 637.041C602.135 670.32 531.057 703.429 460.445 736.37C453.031 739.827 445.71 739.811 438.45 736.4C406.189 721.292 376.611 707.485 349.714 694.979C344.997 692.787 341.479 689.1 339.162 683.917C337.634 680.486 336.916 675.861 337.008 670.043C337.316 650.828 337.316 631.848 337.008 613.104C336.916 607.44 337.583 602.918 339.008 599.538C342.715 590.734 352.313 584.973 361.942 585.756C364.762 585.992 368.448 587.165 373.001 589.275C421.074 611.552 466.705 632.734 509.897 652.82C512.04 653.814 514.127 654.73 516.157 655.57C531.616 661.962 547.643 650.531 547.705 634.199C547.766 617.288 547.766 600.987 547.705 585.295C547.659 574.356 542.275 567.427 532.831 563.033C470.32 533.954 409.814 505.751 351.313 478.423C341.238 473.722 337.07 466.086 337.116 455.438C337.28 405.567 337.27 356.402 337.085 307.944C337.008 290.168 355.374 280.15 370.74 287.356C403.298 302.607 433.784 316.824 462.199 330.007C472.243 334.677 476.381 342.375 476.396 352.945C476.416 390.515 476.396 430.451 476.334 472.754C476.319 483.078 480.857 491.36 490.747 495.615C496.484 498.074 503.237 497.736 508.928 495.078C557.021 472.667 605.37 450.148 653.976 427.522Z" fill="#E3E3E3"/>
</svg>
